<?xml version="1.0" encoding="UTF-8"?>
<svg xmlns="http://www.w3.org/2000/svg" width="1920" height="680" viewBox="0 0 1920 680">
  <defs>
    <clipPath id="tc"><path d="M 0,224 C 10.2,224.7 40.5,226.8 61,228 C 81.5,229.2 102.3,229.8 123,231 C 143.7,232.2 164.3,233.3 185,235 C 205.7,236.7 226.3,238.5 247,241 C 267.7,243.5 288.3,246.7 309,250 C 329.7,253.3 350.3,257.7 371,261 C 391.7,264.3 412.3,267.8 433,270 C 453.7,272.2 474.3,273.0 495,274 C 515.7,275.0 536.3,274.8 557,276 C 577.7,277.2 598.3,278.5 619,281 C 639.7,283.5 660.3,287.0 681,291 C 701.7,295.0 722.3,300.7 743,305 C 763.7,309.3 784.3,313.8 805,317 C 825.7,320.2 846.3,322.5 867,324 C 887.7,325.5 908.5,325.5 929,326 C 949.5,326.5 969.5,326.8 990,327 C 1010.5,327.2 1031.3,326.8 1052,327 C 1072.7,327.2 1093.3,327.0 1114,328 C 1134.7,329.0 1155.3,330.5 1176,333 C 1196.7,335.5 1217.3,338.8 1238,343 C 1258.7,347.2 1279.3,352.8 1300,358 C 1320.7,363.2 1341.3,369.0 1362,374 C 1382.7,379.0 1403.3,383.8 1424,388 C 1444.7,392.2 1465.3,396.5 1486,399 C 1506.7,401.5 1527.3,402.3 1548,403 C 1568.7,403.7 1589.3,402.7 1610,403 C 1630.7,403.3 1651.3,403.3 1672,405 C 1692.7,406.7 1713.3,409.7 1734,413 C 1754.7,416.3 1775.3,421.3 1796,425 C 1816.7,428.7 1837.3,432.3 1858,435 C 1878.7,437.7 1909.7,440.0 1920,441 L 1920,680 L 0,680 Z"/></clipPath>
  </defs>
  <!-- base rock fill -->
  <path d="M 0,224 C 10.2,224.7 40.5,226.8 61,228 C 81.5,229.2 102.3,229.8 123,231 C 143.7,232.2 164.3,233.3 185,235 C 205.7,236.7 226.3,238.5 247,241 C 267.7,243.5 288.3,246.7 309,250 C 329.7,253.3 350.3,257.7 371,261 C 391.7,264.3 412.3,267.8 433,270 C 453.7,272.2 474.3,273.0 495,274 C 515.7,275.0 536.3,274.8 557,276 C 577.7,277.2 598.3,278.5 619,281 C 639.7,283.5 660.3,287.0 681,291 C 701.7,295.0 722.3,300.7 743,305 C 763.7,309.3 784.3,313.8 805,317 C 825.7,320.2 846.3,322.5 867,324 C 887.7,325.5 908.5,325.5 929,326 C 949.5,326.5 969.5,326.8 990,327 C 1010.5,327.2 1031.3,326.8 1052,327 C 1072.7,327.2 1093.3,327.0 1114,328 C 1134.7,329.0 1155.3,330.5 1176,333 C 1196.7,335.5 1217.3,338.8 1238,343 C 1258.7,347.2 1279.3,352.8 1300,358 C 1320.7,363.2 1341.3,369.0 1362,374 C 1382.7,379.0 1403.3,383.8 1424,388 C 1444.7,392.2 1465.3,396.5 1486,399 C 1506.7,401.5 1527.3,402.3 1548,403 C 1568.7,403.7 1589.3,402.7 1610,403 C 1630.7,403.3 1651.3,403.3 1672,405 C 1692.7,406.7 1713.3,409.7 1734,413 C 1754.7,416.3 1775.3,421.3 1796,425 C 1816.7,428.7 1837.3,432.3 1858,435 C 1878.7,437.7 1909.7,440.0 1920,441 L 1920,680 L 0,680 Z" fill="#1a1a3e"/>
  <!-- strata bands (each fills from wavy line to canvas bottom) -->
  <path d="M 0,365 C 13.8,364.8 55.3,364.3 83,364 C 110.7,363.7 138.2,363.0 166,363 C 193.8,363.0 222.2,363.3 250,364 C 277.8,364.7 305.2,365.8 333,367 C 360.8,368.2 389.2,370.0 417,371 C 444.8,372.0 472.2,372.7 500,373 C 527.8,373.3 556.2,373.3 584,373 C 611.8,372.7 639.2,371.8 667,371 C 694.8,370.2 723.2,368.7 751,368 C 778.8,367.3 806.2,367.2 834,367 C 861.8,366.8 890.2,367.0 918,367 C 945.8,367.0 973.2,366.8 1001,367 C 1028.8,367.2 1057.2,367.7 1085,368 C 1112.8,368.3 1140.2,368.5 1168,369 C 1195.8,369.5 1224.2,370.5 1252,371 C 1279.8,371.5 1307.2,371.8 1335,372 C 1362.8,372.2 1391.2,372.0 1419,372 C 1446.8,372.0 1474.2,371.8 1502,372 C 1529.8,372.2 1558.2,372.7 1586,373 C 1613.8,373.3 1641.2,374.2 1669,374 C 1696.8,373.8 1725.2,373.0 1753,372 C 1780.8,371.0 1808.2,369.0 1836,368 C 1863.8,367.0 1906.0,366.3 1920,366 L 1920,680 L 0,680 Z" fill="#2d2d5f" clip-path="url(#tc)"/>
  <path d="M 0,408 C 13.8,408.3 55.3,409.7 83,410 C 110.7,410.3 138.2,410.0 166,410 C 193.8,410.0 222.2,409.8 250,410 C 277.8,410.2 305.2,410.7 333,411 C 360.8,411.3 389.2,411.7 417,412 C 444.8,412.3 472.2,413.0 500,413 C 527.8,413.0 556.2,412.3 584,412 C 611.8,411.7 639.2,411.3 667,411 C 694.8,410.7 723.2,410.3 751,410 C 778.8,409.7 806.2,409.3 834,409 C 861.8,408.7 890.2,408.5 918,408 C 945.8,407.5 973.2,406.5 1001,406 C 1028.8,405.5 1057.2,405.0 1085,405 C 1112.8,405.0 1140.2,405.8 1168,406 C 1195.8,406.2 1224.2,406.2 1252,406 C 1279.8,405.8 1307.2,405.3 1335,405 C 1362.8,404.7 1391.2,404.2 1419,404 C 1446.8,403.8 1474.2,404.2 1502,404 C 1529.8,403.8 1558.2,403.5 1586,403 C 1613.8,402.5 1641.2,401.7 1669,401 C 1696.8,400.3 1725.2,399.5 1753,399 C 1780.8,398.5 1808.2,397.7 1836,398 C 1863.8,398.3 1906.0,400.5 1920,401 L 1920,680 L 0,680 Z" fill="#1a1a3e" clip-path="url(#tc)"/>
  <path d="M 0,447 C 13.8,447.0 55.3,446.8 83,447 C 110.7,447.2 138.2,447.7 166,448 C 193.8,448.3 222.2,448.7 250,449 C 277.8,449.3 305.2,449.5 333,450 C 360.8,450.5 389.2,451.5 417,452 C 444.8,452.5 472.2,452.8 500,453 C 527.8,453.2 556.2,453.5 584,453 C 611.8,452.5 639.2,451.2 667,450 C 694.8,448.8 723.2,447.0 751,446 C 778.8,445.0 806.2,444.2 834,444 C 861.8,443.8 890.2,444.2 918,445 C 945.8,445.8 973.2,447.5 1001,449 C 1028.8,450.5 1057.2,452.5 1085,454 C 1112.8,455.5 1140.2,457.3 1168,458 C 1195.8,458.7 1224.2,458.5 1252,458 C 1279.8,457.5 1307.2,456.0 1335,455 C 1362.8,454.0 1391.2,452.7 1419,452 C 1446.8,451.3 1474.2,451.2 1502,451 C 1529.8,450.8 1558.2,451.2 1586,451 C 1613.8,450.8 1641.2,450.7 1669,450 C 1696.8,449.3 1725.2,448.0 1753,447 C 1780.8,446.0 1808.2,444.5 1836,444 C 1863.8,443.5 1906.0,444.0 1920,444 L 1920,680 L 0,680 Z" fill="#363468" clip-path="url(#tc)"/>
  <path d="M 0,485 C 13.8,484.8 55.3,483.8 83,484 C 110.7,484.2 138.2,485.3 166,486 C 193.8,486.7 222.2,487.7 250,488 C 277.8,488.3 305.2,488.2 333,488 C 360.8,487.8 389.2,487.2 417,487 C 444.8,486.8 472.2,486.8 500,487 C 527.8,487.2 556.2,487.5 584,488 C 611.8,488.5 639.2,489.7 667,490 C 694.8,490.3 723.2,489.8 751,490 C 778.8,490.2 806.2,490.8 834,491 C 861.8,491.2 890.2,491.0 918,491 C 945.8,491.0 973.2,491.3 1001,491 C 1028.8,490.7 1057.2,490.0 1085,489 C 1112.8,488.0 1140.2,486.3 1168,485 C 1195.8,483.7 1224.2,481.7 1252,481 C 1279.8,480.3 1307.2,480.7 1335,481 C 1362.8,481.3 1391.2,482.2 1419,483 C 1446.8,483.8 1474.2,485.5 1502,486 C 1529.8,486.5 1558.2,486.2 1586,486 C 1613.8,485.8 1641.2,485.3 1669,485 C 1696.8,484.7 1725.2,483.8 1753,484 C 1780.8,484.2 1808.2,485.5 1836,486 C 1863.8,486.5 1906.0,486.8 1920,487 L 1920,680 L 0,680 Z" fill="#201e48" clip-path="url(#tc)"/>
  <path d="M 0,530 C 13.8,529.8 55.3,529.7 83,529 C 110.7,528.3 138.2,526.7 166,526 C 193.8,525.3 222.2,524.8 250,525 C 277.8,525.2 305.2,526.2 333,527 C 360.8,527.8 389.2,529.0 417,530 C 444.8,531.0 472.2,532.5 500,533 C 527.8,533.5 556.2,533.2 584,533 C 611.8,532.8 639.2,532.3 667,532 C 694.8,531.7 723.2,531.3 751,531 C 778.8,530.7 806.2,530.0 834,530 C 861.8,530.0 890.2,530.7 918,531 C 945.8,531.3 973.2,532.0 1001,532 C 1028.8,532.0 1057.2,531.5 1085,531 C 1112.8,530.5 1140.2,529.7 1168,529 C 1195.8,528.3 1224.2,527.3 1252,527 C 1279.8,526.7 1307.2,526.8 1335,527 C 1362.8,527.2 1391.2,527.5 1419,528 C 1446.8,528.5 1474.2,529.7 1502,530 C 1529.8,530.3 1558.2,530.2 1586,530 C 1613.8,529.8 1641.2,529.3 1669,529 C 1696.8,528.7 1725.2,528.3 1753,528 C 1780.8,527.7 1808.2,527.2 1836,527 C 1863.8,526.8 1906.0,527.0 1920,527 L 1920,680 L 0,680 Z" fill="#303062" clip-path="url(#tc)"/>
  <path d="M 0,573 C 13.8,572.8 55.3,572.5 83,572 C 110.7,571.5 138.2,570.7 166,570 C 193.8,569.3 222.2,568.3 250,568 C 277.8,567.7 305.2,567.7 333,568 C 360.8,568.3 389.2,569.3 417,570 C 444.8,570.7 472.2,571.7 500,572 C 527.8,572.3 556.2,572.0 584,572 C 611.8,572.0 639.2,572.2 667,572 C 694.8,571.8 723.2,571.3 751,571 C 778.8,570.7 806.2,570.3 834,570 C 861.8,569.7 890.2,569.5 918,569 C 945.8,568.5 973.2,567.7 1001,567 C 1028.8,566.3 1057.2,565.2 1085,565 C 1112.8,564.8 1140.2,565.7 1168,566 C 1195.8,566.3 1224.2,566.3 1252,567 C 1279.8,567.7 1307.2,569.2 1335,570 C 1362.8,570.8 1391.2,571.2 1419,572 C 1446.8,572.8 1474.2,574.2 1502,575 C 1529.8,575.8 1558.2,576.5 1586,577 C 1613.8,577.5 1641.2,578.0 1669,578 C 1696.8,578.0 1725.2,577.5 1753,577 C 1780.8,576.5 1808.2,575.7 1836,575 C 1863.8,574.3 1906.0,573.3 1920,573 L 1920,680 L 0,680 Z" fill="#1a1a3e" clip-path="url(#tc)"/>
  <path d="M 0,610 C 13.8,609.7 55.3,608.5 83,608 C 110.7,607.5 138.2,606.8 166,607 C 193.8,607.2 222.2,608.7 250,609 C 277.8,609.3 305.2,609.2 333,609 C 360.8,608.8 389.2,608.7 417,608 C 444.8,607.3 472.2,605.8 500,605 C 527.8,604.2 556.2,603.5 584,603 C 611.8,602.5 639.2,601.8 667,602 C 694.8,602.2 723.2,603.3 751,604 C 778.8,604.7 806.2,605.3 834,606 C 861.8,606.7 890.2,607.7 918,608 C 945.8,608.3 973.2,608.2 1001,608 C 1028.8,607.8 1057.2,607.5 1085,607 C 1112.8,606.5 1140.2,605.2 1168,605 C 1195.8,604.8 1224.2,605.5 1252,606 C 1279.8,606.5 1307.2,607.3 1335,608 C 1362.8,608.7 1391.2,609.7 1419,610 C 1446.8,610.3 1474.2,610.3 1502,610 C 1529.8,609.7 1558.2,608.7 1586,608 C 1613.8,607.3 1641.2,606.7 1669,606 C 1696.8,605.3 1725.2,604.2 1753,604 C 1780.8,603.8 1808.2,604.5 1836,605 C 1863.8,605.5 1906.0,606.7 1920,607 L 1920,680 L 0,680 Z" fill="#2a2856" clip-path="url(#tc)"/>
  <path d="M 0,654 C 13.8,654.2 55.3,655.0 83,655 C 110.7,655.0 138.2,654.3 166,654 C 193.8,653.7 222.2,653.3 250,653 C 277.8,652.7 305.2,652.3 333,652 C 360.8,651.7 389.2,651.0 417,651 C 444.8,651.0 472.2,651.7 500,652 C 527.8,652.3 556.2,652.8 584,653 C 611.8,653.2 639.2,653.3 667,653 C 694.8,652.7 723.2,652.0 751,651 C 778.8,650.0 806.2,648.2 834,647 C 861.8,645.8 890.2,644.5 918,644 C 945.8,643.5 973.2,643.5 1001,644 C 1028.8,644.5 1057.2,645.8 1085,647 C 1112.8,648.2 1140.2,650.0 1168,651 C 1195.8,652.0 1224.2,652.8 1252,653 C 1279.8,653.2 1307.2,652.5 1335,652 C 1362.8,651.5 1391.2,650.2 1419,650 C 1446.8,649.8 1474.2,650.5 1502,651 C 1529.8,651.5 1558.2,652.3 1586,653 C 1613.8,653.7 1641.2,654.5 1669,655 C 1696.8,655.5 1725.2,656.0 1753,656 C 1780.8,656.0 1808.2,655.5 1836,655 C 1863.8,654.5 1906.0,653.3 1920,653 L 1920,680 L 0,680 Z" fill="#3a386c" clip-path="url(#tc)"/>
</svg>